<svg width="150" height="150" viewBox="0 0 150 150" fill="none" xmlns="http://www.w3.org/2000/svg">
<path d="M74.7865 21.6383C76.1111 21.4779 78.0717 21.7171 79.4273 21.8346C88.2676 22.5803 95.495 28.3035 104.293 29.0839C105.308 29.174 106.329 29.1692 107.347 29.2099C109.658 29.3022 111.907 28.7678 114.181 28.3694C115.063 33.5357 118.056 35.2345 123.113 35.0085C122.988 36.1836 123.061 38.9638 123.061 40.2191L123.06 50.4977L123.065 84.1975L123.064 91.9279C123.063 94.8919 123.156 97.5024 122.569 100.407C118.532 120.392 94.6054 121.771 79.622 129.343C78.0924 130.117 76.5956 131.118 75.1601 132.083C74.0893 131.597 73.2408 130.793 72.2399 130.238C65.6556 126.593 57.8949 124.497 50.9069 122C40.9373 118.438 29.9282 112.467 27.5837 101.207C26.8516 97.6903 26.985 93.3257 26.9806 89.7175L26.9799 76.4412L26.9739 50.1565C26.9688 45.1166 26.8952 39.9254 26.973 34.8998C28.7364 34.904 30.7997 34.9881 32.3778 34.0896C33.4756 33.4645 34.7718 32.1806 35.2744 31.0082C35.5357 30.3985 35.8233 29.2291 36.0137 28.5503C36.4486 28.366 37.253 28.7357 37.7356 28.8005C40.9199 29.2284 44.3075 29.3705 47.492 28.8863C51.447 28.285 55.135 26.5975 58.8177 25.135C62.5944 23.6352 66.4844 22.296 70.5451 21.8662C72.1129 21.6947 73.2466 21.7054 74.7865 21.6383Z" fill="#142C40"/>
<path d="M73.6653 24.2065C75.1902 24.0529 76.8441 24.2085 78.364 24.3198C84.4733 24.7671 89.8435 27.4451 95.4722 29.5884C100.807 31.62 106.611 32.3772 112.275 31.3965C113.625 35.2338 116.767 37.0355 120.641 37.5283C120.537 42.4251 120.619 47.6297 120.618 52.5451L120.609 80.7496L120.605 90.685C120.603 93.992 120.785 97.5596 120.035 100.746C116.504 115.757 98.3675 119.398 85.9957 123.922C82.2268 125.3 79.3061 126.579 75.8956 128.666L75.1445 129.205C70.3723 125.809 63.2826 123.588 57.7284 121.718C46.6129 117.977 32.6238 113.4 30.0028 100.219C29.3619 96.9954 29.5144 93.8343 29.5122 90.5731L29.508 79.8532L29.4873 37.5175C33.2303 37.3477 36.6564 34.9382 37.8406 31.3503C43.8693 32.4648 50.5179 31.4325 56.113 29.0658C62.3264 26.4376 66.8858 24.5681 73.6653 24.2065Z" fill="white"/>
<path d="M56.3498 34.9948C59.5215 30.8307 60.432 35.1354 58.5601 37.1355C58.4668 37.2346 58.3706 37.331 58.2717 37.4245C59.3007 40.6495 56.9503 46.0224 57.3726 49.5474C57.5712 51.2047 58.0798 53.1906 60.4522 52.6165C62.6187 51.7704 64.5413 48.234 65.4432 46.2075C66.0214 44.8735 66.5921 43.5361 67.1554 42.1956C68.4434 39.1463 70.4052 33.5594 74.7409 35.295C78.0989 36.6395 78.8479 44.1572 83.3021 43.0586C86.8887 41.6378 86.8059 35.3531 91.1122 35.0465C95.4153 34.74 95.8806 39.6294 97.5502 42.1934C99.7833 45.6229 102.605 48.7798 103.952 52.7789C104.209 53.5417 104.44 54.6526 104.805 55.339C105.993 56.2954 107.158 57.3262 108.336 58.2558C109.434 59.1223 111.626 59.9792 112.043 61.3759C112.59 63.2041 112.998 65.6868 113.281 67.6093C113.524 69.2568 113.384 72.3281 112.341 73.6957C111.908 74.2151 111.166 74.818 110.594 75.1668C110.43 76.8079 110.294 78.3945 109.36 79.8095C111.05 79.98 112.982 79.9841 114.628 80.3093C113.287 80.7098 110.37 81.0172 108.96 81.1618L103.269 81.7636C97.2499 82.3854 91.2196 82.8984 85.1815 83.3021C73.0279 84.2361 60.8804 84.9222 48.6867 84.4076C44.743 84.2411 39.9355 84.1464 36.1142 83.221C37.8033 82.5776 40.8896 82.2048 42.7504 82.0911C41.6011 81.1586 41.326 80.6916 40.6668 79.3545C39.7955 79.3681 39.1514 79.3678 38.2731 79.2947C37.4005 78.5357 35.8945 78.2967 36.4655 77.1385C36.6209 76.8233 36.4902 76.201 36.5172 75.8585C36.4643 74.8989 36.4923 73.9607 36.5358 72.9983C36.2162 72.7038 35.8882 72.3869 35.9009 71.92C35.9267 70.9791 36.5042 68.8184 36.919 67.9958L37.0082 67.9602L37.0728 68.043C38.2394 69.5155 38.9058 68.0177 39.3111 66.8974C38.8103 66.4834 38.2264 66.1103 37.6585 65.7946C38.9008 64.5529 39.6729 64.1609 41.2119 63.3041C42.1294 62.7933 43.0186 62.1967 43.9882 61.7657C46.6776 60.5701 50.3531 59.7856 53.278 59.4665C48.9796 55.8217 48.9084 53.1958 49.0035 47.8024C49.0159 47.1014 49.0432 45.8914 48.1473 45.7887C47.1603 45.7064 43.9269 44.7664 43.0851 45.0258C40.9974 45.6695 38.8568 48.4966 36.857 45.2334L36.6181 44.9974C36.3269 44.5583 35.9298 44.1625 35.8174 43.626C35.5359 42.2819 36.1019 41.1241 36.8053 40.0518C37.1972 39.4687 37.7676 38.9397 38.2721 38.4563C40.2194 36.5368 42.4876 35.7499 45.072 35.0986C46.5764 34.7194 47.7808 35.0503 49.0855 34.8472C51.4266 34.4828 53.4242 32.9425 55.8543 34.5959C56.0303 34.7148 56.196 34.8483 56.3498 34.9948Z" fill="#173349"/>
<path d="M56.3498 34.9948C59.5215 30.8307 60.432 35.1354 58.5601 37.1355C58.4668 37.2346 58.3706 37.331 58.2717 37.4245C59.3007 40.6495 56.9502 46.0224 57.3726 49.5474C57.5712 51.2047 58.0798 53.1906 60.4522 52.6165C62.6187 51.7704 64.5413 48.234 65.4432 46.2075C66.0214 44.8735 66.5921 43.5361 67.1553 42.1956C68.4434 39.1463 70.4052 33.5594 74.7409 35.295C78.0989 36.6395 78.8478 44.1572 83.3021 43.0586C86.8886 41.6378 86.8059 35.3531 91.1122 35.0465C95.4153 34.74 95.8806 39.6294 97.5502 42.1934C99.7833 45.6229 102.605 48.7798 103.952 52.7789C104.209 53.5417 104.44 54.6526 104.805 55.339C102.622 53.7454 100.499 52.3681 97.9051 51.4971C91.5955 49.3788 78.438 49.8147 71.7229 50.8637C70.3524 51.0777 68.958 51.3534 67.6535 51.8303C66.0575 52.4138 64.5665 53.2679 63.0988 54.1141C60.3828 55.6799 57.7216 57.37 55.2913 59.359C54.6212 59.3862 53.9454 59.406 53.278 59.4665C48.9796 55.8217 48.9084 53.1958 49.0035 47.8024C49.0159 47.1014 49.0432 45.8914 48.1473 45.7887C47.1603 45.7064 43.9269 44.7664 43.0851 45.0258C40.9974 45.6695 38.8568 48.4966 36.857 45.2334L36.6181 44.9974C36.3269 44.5583 35.9298 44.1625 35.8174 43.626C35.5359 42.2819 36.1019 41.1241 36.8053 40.0518C37.1972 39.4687 37.7676 38.9397 38.2721 38.4563C40.2194 36.5368 42.4876 35.7499 45.072 35.0986C46.5764 34.7194 47.7808 35.0503 49.0855 34.8472C51.4266 34.4828 53.4242 32.9425 55.8543 34.5959C56.0303 34.7148 56.196 34.8483 56.3498 34.9948Z" fill="#E0A52E"/>
<path d="M36.8053 40.0518C37.6548 41.8697 35.6327 44.2761 38.5574 44.4655C37.9965 44.5597 37.1065 44.4321 36.718 44.7608L36.6181 44.9974C36.3269 44.5583 35.9298 44.1625 35.8174 43.626C35.5359 42.2819 36.1019 41.1241 36.8053 40.0518Z" fill="#CD993E"/>
<path d="M38.5575 44.4655C40.2277 44.3795 40.9025 43.6177 42.2724 42.9904C40.8819 44.7881 39.0889 45.5038 36.8571 45.2334L36.6182 44.9974L36.7181 44.7608C37.1065 44.4321 37.9966 44.5597 38.5575 44.4655Z" fill="#142C40"/>
<path d="M50.4764 37.3761C52.3292 37.3083 52.7184 38.5632 51.0389 39.0204C49.6226 39.0446 48.5773 37.8824 50.4764 37.3761Z" fill="#142C40"/>
<path d="M58.3878 34.332C59.1899 34.8569 58.4676 36.2705 57.5874 36.5658L57.3287 36.4196C56.8573 35.6775 57.8723 34.7724 58.3878 34.332Z" fill="#CD993E"/>
<path d="M39.6937 39.7C39.8312 39.7029 39.8385 39.7133 39.9741 39.7451L40.0315 39.8749C39.7791 40.537 38.6364 40.8835 38.0029 40.9804C37.7256 40.9376 37.6236 40.9666 37.6216 40.6877C37.945 40.262 39.1641 39.8697 39.6937 39.7Z" fill="#142C40"/>
<path d="M43.1884 66.8314C45.2578 66.7363 53.9131 66.7451 55.5615 67.4483C56.5546 67.8719 57.1516 68.955 57.5604 69.8979C57.3978 70.5499 56.9991 71.3831 56.5825 71.9162C55.8287 72.8811 54.4934 72.8818 53.3377 73.0043C51.2812 73.1649 41.4277 73.623 40.0881 72.4311C39.4844 71.894 39.1668 70.5537 39.1227 69.7747C39.0722 68.8809 39.143 68.2152 39.7802 67.5401C40.5671 66.7063 42.1331 66.8745 43.1884 66.8314Z" fill="#142C40"/>
<path d="M39.7031 68.5632C41.0317 68.5405 56.0334 68.7548 56.4893 68.9278C56.7442 69.1731 56.7392 69.4044 56.75 69.7453C52.0939 69.7491 47.4481 69.8977 42.7816 69.589C42.0669 69.5417 40.3205 69.5013 39.7421 69.3782C39.6322 69.1777 39.6895 68.8096 39.7031 68.5632Z" fill="#173349"/>
<path d="M93.041 51.8142C93.4207 51.8052 93.8569 51.8471 94.2401 51.8729C94.6072 53.6553 94.7352 55.6085 95.0431 57.4134C95.1876 58.2605 95.3119 59.2424 95.3761 60.0924C93.5976 60.3091 91.8575 60.5654 90.0611 60.7128C88.6435 60.8291 87.2385 60.9044 85.822 61.011C85.2631 60.9959 84.5823 61.2243 83.903 61.1354C83.1258 60.0162 86.8157 55.3706 87.5994 54.4645C89.3361 52.4566 90.469 51.9807 93.041 51.8142Z" fill="#142C40"/>
<path d="M87.9208 57.5082C88.9569 57.4729 90.605 57.3302 91.4686 57.996C91.9674 58.3805 92.0559 59.2126 91.6011 59.6779C91.2105 60.0773 90.8127 60.0457 90.2897 60.0778C89.261 60.1627 85.4457 60.5757 86.6568 58.5284C86.9993 57.9495 87.2801 57.6784 87.9208 57.5082Z" fill="#173349"/>
<path d="M78.7381 69.822C82.5801 69.8799 82.7127 80.3801 79.0907 81.8331C77.2969 81.8722 76.7297 80.2378 76.2606 78.78C75.5519 76.5771 75.8369 70.5023 78.7381 69.822Z" fill="white"/>
<path d="M78.4302 70.9714C81.6194 70.8108 81.7593 78.8947 79.1254 80.4243C75.925 80.7807 75.7617 72.5108 78.4302 70.9714Z" fill="#142C40"/>
<path d="M40.8072 75.6876C41.1083 75.6756 41.4097 75.6691 41.7111 75.6685C42.6551 75.67 52.76 76.0946 52.7628 76.0973C52.3516 76.1052 51.2663 76.0387 50.9905 76.1216C53.2131 76.3541 55.595 75.6263 57.5359 76.8046C58.1875 77.2003 59.4865 78.0227 59.7033 78.7845C54.7631 78.9678 49.9251 78.7261 44.995 78.4308C43.4238 78.3367 40.1896 78.3618 38.8198 78.0077C39.1635 77.1102 39.8112 75.9244 40.8072 75.6876Z" fill="#142C40"/>
<path d="M94.9709 51.9155C96.6586 52.258 100.068 53.0497 101.257 54.2935C101.432 55.2811 102.351 58.5328 102.354 59.1863C102.156 59.353 101.945 59.3311 101.677 59.3524C100.357 59.621 98.0382 59.7594 96.5811 59.9748C96.2959 58.2633 95.9158 56.5601 95.5714 54.86C95.3824 53.9275 95.078 52.8365 94.9709 51.9155Z" fill="#142C40"/>
<path d="M72.1197 65.2899C72.446 65.2649 72.4017 65.2199 72.6572 65.3412L72.6922 65.5336C72.5568 66.0348 72.199 66.6193 71.8814 67.0349C70.9471 68.2573 70.0468 68.98 68.41 69.1243C66.1053 69.3273 63.286 69.6505 60.9659 69.4766C60.6764 69.4549 60.1108 69.02 59.8712 68.8365C59.2872 68.35 58.7103 67.8552 58.1406 67.3523C59.9588 66.8835 62.3516 66.5576 64.23 66.2714C66.7429 65.8886 69.5898 65.4596 72.1197 65.2899Z" fill="white"/>
<path d="M109.927 75.3728C109.808 76.455 109.387 78.8267 108.199 79.2295C107.896 79.3309 107.565 79.2997 107.287 79.1437C105.252 78.0067 105.327 71.7561 106.635 69.9842C108.561 67.3745 109.6 70.7043 109.877 72.331C110.388 73.1272 110.515 74.602 109.927 75.3728Z" fill="white"/>
<path d="M109.877 72.331C110.388 73.1271 110.516 74.6019 109.927 75.3727C109.984 74.1514 110.024 73.553 109.877 72.331Z" fill="#142C40"/>
<path d="M107.68 70.21C109.278 70.3569 109.441 73.5955 109.356 74.7726C109.268 75.9737 109.005 77.2333 108.072 78.0622C106.284 77.8636 106.285 75.06 106.311 73.6856C106.334 72.3825 106.686 71.1119 107.68 70.21Z" fill="#142C40"/>
<path d="M66.6558 73.7862C66.9563 73.7521 68.0653 73.7229 68.3139 73.7969C69.6804 74.2031 70.1363 77.3187 67.8547 77.1055C66.2587 76.9566 64.4012 77.4605 62.774 76.8594C61.5912 76.2356 60.6528 75.3892 59.3984 74.7177C61.2866 74.2125 64.741 73.9112 66.6558 73.7862Z" fill="#142C40"/>
<path d="M100.315 77.0939C100.651 77.0557 101.084 77.049 101.429 77.0339C101.637 77.9098 101.823 78.4905 102.19 79.3094C96.7176 79.0767 90.7052 78.9465 85.2041 79.1558C84.7056 79.1756 83.6109 79.2568 83.1995 79.06L83.2755 78.9692C84.1709 78.6998 87.227 78.4669 88.3028 78.3367C92.2595 77.858 96.3427 77.4021 100.315 77.0939Z" fill="white"/>
<path d="M51.3803 79.812C54.4987 79.882 57.6781 80.2274 60.8025 80.3241C61.9987 80.3611 63.2208 80.4472 64.4162 80.3957C64.6587 80.4306 64.747 80.4201 64.9657 80.5212L65.0284 80.6301C64.813 80.8026 64.3611 80.7888 64.0784 80.8501C61.3809 80.9364 58.6316 81.1523 55.9263 81.2804C54.1405 81.365 51.9582 81.3694 50.2344 81.5889C50.7463 80.9614 51.0182 80.5296 51.3803 79.812Z" fill="white"/>
<path d="M101.667 54.5218C102.667 55.206 104.604 56.4428 104.894 57.6694C104.951 57.91 104.928 58.7225 104.792 58.9657C104.089 59.1381 103.598 59.1604 102.878 59.1807C102.541 57.7446 101.911 55.8667 101.667 54.5218Z" fill="#142C40"/>
<path d="M64.4164 80.3957C65.1879 80.335 70.4511 80.0312 70.8287 80.2887C70.9297 80.3576 70.9153 80.3432 70.9396 80.4239C70.5747 80.7322 64.8063 80.8741 64.0786 80.8501C64.3613 80.7888 64.8132 80.8026 65.0286 80.63L64.9659 80.5212C64.7472 80.4201 64.6588 80.4305 64.4164 80.3957Z" fill="white"/>
<path d="M94.9765 62.2875C95.4405 62.2472 95.8829 62.1082 96.1004 62.6065C95.9824 63.2042 95.4253 63.1576 94.9398 63.1984C94.4714 63.2223 93.7437 63.3375 93.4895 62.8481L93.5619 62.6863C94.0368 62.2968 94.353 62.3447 94.9765 62.2875Z" fill="#142C40"/>
<path d="M104.154 61.1146C104.539 61.0873 104.794 61.0235 105.085 61.314C105.205 62.0001 104.033 61.9746 103.619 61.9821C103.306 62.0197 102.816 62.042 102.692 61.7061C102.879 61.1892 103.706 61.1585 104.154 61.1146Z" fill="#142C40"/>
<path d="M94.6045 102.417C95.9764 102.291 97.4796 102.495 98.6972 103.119C102.969 105.309 103.308 112.463 99.5723 115.295C98.5214 116.092 97.5259 116.378 96.2565 116.594C94.5393 116.784 92.6999 116.489 91.2579 115.447C88.1725 113.216 87.9198 107.846 90.0928 104.925C91.2346 103.389 92.7202 102.68 94.6045 102.417Z" fill="#142C40"/>
<path d="M94.678 103.799C96.5738 103.673 97.5611 104.185 98.2088 106.079C98.9667 108.296 99.0042 111.411 98.091 113.594C97.7168 114.489 97.0129 114.986 96.1352 115.293C93.9448 115.627 92.8791 114.296 92.3697 112.335C91.7459 109.934 91.6074 104.642 94.678 103.799Z" fill="white"/>
<path d="M89.3213 87.4064C92.4377 87.0988 94.8458 89.1642 95.1759 92.2475C95.5556 95.7941 94.1084 98.7255 90.3384 99.1428C84.7669 99.7327 82.9171 93.0195 85.8106 89.1535C86.6611 88.0172 87.9401 87.5403 89.3213 87.4064Z" fill="#142C40"/>
<path d="M89.3882 88.4891C89.8256 88.4681 90.2797 88.4341 90.6727 88.658C92.3468 89.6185 92.5203 92.2678 92.4496 93.9877C92.3805 95.6661 92.1418 97.5075 90.2957 98.046C87.4385 98.218 87.1658 94.8011 87.2148 92.6938C87.2529 91.0536 87.578 89.0161 89.3882 88.4891Z" fill="white"/>
<path d="M106.218 87.5302L109.382 87.5466C111.448 87.5544 113.709 87.504 115.292 89.0901C117.327 91.1311 117.336 95.2934 115.292 97.3149C113.73 98.8584 111.028 98.9589 108.972 98.9182C108.478 98.9084 106.658 99.01 106.29 98.8679L106.076 98.9232C106.126 98.5985 106.202 98.3526 105.972 98.0996C106.346 97.9843 106.414 97.9561 106.8 97.977L107.343 97.7999C107.434 94.9487 107.404 91.6017 107.366 88.7317C106.942 88.5792 106.652 88.4812 106.212 88.3663L106.218 87.5302Z" fill="#142C40"/>
<path d="M105.972 98.0996C106.346 97.9843 106.414 97.9561 106.8 97.977C106.245 98.2966 106.285 98.1907 106.29 98.8679L106.076 98.9231C106.126 98.5985 106.202 98.3526 105.972 98.0996Z" fill="#E8DBB9"/>
<path d="M109.865 88.6482C110.824 88.6482 111.809 88.6159 112.59 89.2531C114.599 90.8902 114.558 94.9402 113.078 96.8379C112.109 97.8547 111.14 97.7817 109.867 97.7756C109.851 94.7331 109.85 91.6906 109.865 88.6482Z" fill="white"/>
<path d="M53.2075 102.685L55.7235 102.686C57.1168 106.713 58.6101 110.873 60.1662 114.844C60.3053 115.199 61.0073 115.298 61.3511 115.368L61.3561 116.442C59.3022 116.467 57.222 116.449 55.1658 116.447L55.1736 115.443C55.6447 115.335 56.2165 115.26 56.5627 114.92C56.7371 114.442 56.1133 112.937 55.9099 112.411L55.7554 112.364C54.331 112.4 52.908 112.36 51.481 112.401C51.3149 113.083 50.9982 113.993 50.7503 114.635C51.3634 115.23 51.6222 115.266 52.4435 115.414L52.4421 116.459L47.5322 116.457L47.5409 115.424C48.142 115.245 48.7488 115.111 49.0101 114.474C49.6001 113.038 50.0838 111.527 50.5981 110.06C51.4833 107.607 52.3532 105.149 53.2075 102.685Z" fill="#142C40"/>
<path d="M53.6808 105.575C53.8539 105.72 55.2124 110.307 55.4349 110.998L53.8511 111.008C53.2372 111.005 52.6233 111.006 52.0095 111.013C52.4654 109.243 53.1689 107.39 53.6808 105.575Z" fill="white"/>
<path d="M69.5934 102.684L72.8392 102.682L74.5038 102.684L74.4836 103.764C73.8953 103.799 73.5586 103.978 73.0333 104.219C72.9615 107.188 73.1808 110.262 72.868 113.2C72.4416 117.205 65.7527 117.499 63.3867 115.382C62.8777 114.931 62.5009 114.351 62.297 113.702C61.9156 112.462 62.0531 110.998 62.0313 109.707C62.0011 107.917 62.0981 105.993 62.0045 104.21C61.4109 103.887 61.1398 103.827 60.5001 103.688L60.4973 102.684L66.7966 102.692L66.7788 103.724C66.0726 103.864 65.7772 103.91 65.1532 104.312C65.0465 106.538 65.1564 108.784 65.1082 111.036C65.0654 113.04 65.3757 114.815 67.8237 114.939C71.702 115.136 71.2708 112.265 71.2697 109.388L71.2632 104.348C70.5918 103.83 70.421 103.85 69.5894 103.737L69.5934 102.684Z" fill="#142C40"/>
<path d="M73.7577 87.5241C75.0649 87.5009 76.5167 87.5545 77.8198 87.532C80.6603 87.4827 83.6598 88.2008 82.7856 91.8282C82.5741 92.7056 81.6558 93.3948 80.8347 93.6853C81.3505 94.5012 81.7999 95.361 82.2706 96.2034C82.8679 97.2723 83.1135 97.8015 84.3162 98.1547C84.3173 98.4648 84.3414 98.6274 84.2401 98.9136C83.8279 98.9973 81.5632 98.9816 81.0345 98.9858C80.8054 98.6316 80.6253 98.2903 80.4252 97.9199C79.8146 96.7487 79.1615 95.3803 78.4944 94.2625L77.4105 94.2551C77.4015 95.1408 77.3265 96.8002 77.4908 97.6719C77.5324 97.8926 78.3549 98.0872 78.6105 98.1597C78.6069 98.4422 78.6302 98.6325 78.5147 98.8897C78.1261 98.965 74.2724 98.9417 73.7678 98.9009L73.6252 98.6766C73.603 98.0432 74.3468 97.9607 74.8847 97.6985C74.9626 96.7358 74.9263 95.3525 74.9263 94.3701L74.9225 88.7242C74.4927 88.5329 74.1993 88.4633 73.7454 88.3429L73.7577 87.5241Z" fill="#142C40"/>
<path d="M77.4014 88.663C78.1509 88.6564 78.8501 88.6091 79.4786 89.091C80.5934 89.9459 80.5446 91.5219 79.7411 92.5523C78.9049 93.1688 78.4046 93.0919 77.3823 93.0918C77.365 91.6457 77.3945 90.1146 77.4014 88.663Z" fill="white"/>
<path d="M75.6725 102.69C79.7068 102.689 83.7835 102.66 87.8143 102.708C87.8316 103.856 87.9886 105.402 88.0514 106.591L86.7614 106.639C86.4685 105.775 86.1737 104.781 85.5511 104.106C84.8743 104.044 83.9288 104.059 83.2309 104.051C83.2604 106.369 83.2718 108.688 83.2652 111.007C83.2652 112.168 83.2498 113.376 83.2894 114.537C83.2986 114.807 83.3201 114.809 83.4614 115.001C83.9603 115.221 84.4226 115.313 84.9539 115.405L84.9486 116.454L78.4835 116.447L78.5002 115.374C79.2044 115.24 79.4883 115.193 80.1001 114.826C80.2526 114.057 80.2003 111.865 80.1993 110.968C80.1885 108.668 80.1924 106.368 80.2112 104.068C77.6375 104.021 77.3373 103.881 76.6469 106.62C76.2129 106.599 75.7787 106.584 75.3442 106.575C75.3916 105.409 75.5779 103.887 75.6725 102.69Z" fill="#142C40"/>
<path d="M62.2051 93.0276C63.2102 92.0013 64.816 90.1386 65.6937 88.9537C65.9908 88.5527 65.0573 88.5598 64.8188 87.9995C64.8188 87.7946 64.8849 87.7474 65.0063 87.5756C65.4116 87.4847 68.3461 87.5138 68.9915 87.5119L68.9524 88.3586C67.1337 88.8634 66.2173 90.5147 64.7974 91.9127L68.2133 97.1582C68.4098 97.4199 68.6222 97.6479 68.8402 97.8915L69.6925 98.1456L69.658 98.9519C68.0457 98.9256 66.433 98.9268 64.8207 98.9554C64.8113 98.6655 64.7848 98.495 64.8626 98.2202C65.0299 98.006 65.2973 97.9851 65.5727 97.9199C65.1277 96.9865 63.5488 94.6849 62.9158 93.7158C62.6744 94.0411 62.5358 94.1426 62.2322 94.3962C62.1663 95.0221 62.1264 97.1327 62.2921 97.7151C62.5906 98.0923 63.0104 97.9004 63.351 98.2511C63.3509 98.5524 63.3664 98.6227 63.2699 98.8999C62.8682 98.9716 62.0092 98.9333 61.5638 98.9322L58.5273 98.9504C58.4047 98.0226 58.8153 98.0776 59.6224 97.7853C59.6949 94.8642 59.658 91.6994 59.6513 88.7739C59.1507 88.5115 59.0325 88.4932 58.4961 88.3854L58.5077 87.5138L63.4631 87.5179L63.4221 88.3546C62.9122 88.4794 62.7182 88.5411 62.2342 88.7431C62.2418 90.1713 62.232 91.5995 62.2051 93.0276Z" fill="#142C40"/>
<path d="M99.4915 87.5283L101.583 87.5217C102.508 90.304 103.965 94.8582 105.099 97.7248C105.191 97.9571 105.715 98.0497 105.972 98.0996C106.202 98.3526 106.126 98.5986 106.076 98.9232C105.646 98.9545 101.435 98.9465 101.237 98.8763C100.702 97.9738 101.901 98.1301 102.257 97.8051C102.385 97.4194 101.856 96.1639 101.72 95.589C100.542 95.5905 99.3634 95.6006 98.1851 95.6194C98.0197 96.0927 97.7913 96.5781 97.6551 97.0504C97.3926 97.9597 98.2268 97.9726 98.7997 98.052L98.7827 98.9437C97.4895 98.9277 96.1961 98.9283 94.9028 98.9453C94.8911 98.6963 94.8895 98.4311 94.8833 98.1803C95.3377 98.0218 95.9065 97.8587 96.0824 97.3675C97.2369 94.1428 98.4733 90.7908 99.4915 87.5283Z" fill="#142C40"/>
<path d="M99.9163 90.0623C100.334 91.0473 100.968 93.3579 101.3 94.4576L99.9535 94.4604L98.5215 94.4722C98.9067 93.1227 99.448 91.3799 99.9163 90.0623Z" fill="white"/>
<path d="M38.4302 87.3351C39.8119 87.3601 40.3503 87.4581 41.6757 87.8678C41.7079 88.7205 41.732 89.5734 41.7478 90.4265L40.5881 90.4946C40.3323 89.7193 40.186 89.2697 39.6043 88.6769C38.8203 88.4227 37.7414 88.3435 37.0782 88.9969C36.6197 89.4667 36.6526 90.5208 37.1228 90.9648C38.6981 92.4525 42.2158 92.6901 42.2116 95.5153C42.2073 98.4727 39.7862 99.1953 37.2885 99.1708C36.0058 99.0389 35.6334 98.912 34.4271 98.5187L34.3716 95.7242L35.4824 95.6826C35.6823 96.3554 35.9243 97.076 36.4742 97.5538C37.2649 98.241 38.813 98.2624 39.508 97.4138C39.9301 96.8986 39.9041 96.4977 39.8256 95.8676C39.3929 95.2048 38.5503 94.6341 37.7429 94.3714C35.0606 93.4988 33.27 91.1486 35.2388 88.513C35.9246 87.5947 37.2589 87.4016 38.4302 87.3351Z" fill="#142C40"/>
<path d="M54.1978 87.5146L54.1829 88.3491C53.6092 88.4967 53.4453 88.5295 52.9304 88.8353L52.9432 97.7727C53.8404 97.7889 54.7379 97.7853 55.6351 97.7617C56.2847 97.0772 56.5475 96.2374 56.8587 95.3605C57.2228 95.3583 57.5505 95.3889 57.9123 95.4171L57.812 96.2369C57.692 97.1406 57.5785 98.0451 57.4714 98.9504C55.1962 98.9239 52.9156 98.95 50.64 98.9545C50.1901 98.9554 49.7779 98.9683 49.3287 98.9136C49.1712 98.7162 49.1688 98.7341 49.1343 98.4868C49.3965 98.0665 50.4033 97.9882 50.3954 97.1158C50.3879 96.2908 50.3734 95.4609 50.374 94.6348L50.3822 88.7412C49.9949 88.6034 49.619 88.4444 49.2392 88.2877C49.2261 88.0432 49.2381 87.7829 49.2436 87.5361C50.7478 87.471 52.6582 87.5179 54.1978 87.5146Z" fill="#142C40"/>
<path d="M48.1839 87.5056C48.2451 88.7488 47.8679 88.1856 46.9906 88.8063L46.9757 94.6224C46.9765 95.3238 46.9386 96.999 47.0507 97.6132C47.3722 98.0604 47.6162 98.0299 48.1714 98.1402C48.1758 98.393 48.1531 98.6985 48.1414 98.9555C46.8824 98.9261 44.3908 99.0436 43.3155 98.9237C43.1915 98.705 43.235 98.5092 43.2479 98.2502C43.6864 98.104 43.9752 97.9741 44.3951 97.7844C44.423 94.735 44.4342 91.6855 44.4286 88.636C44.0524 88.5416 43.6316 88.4563 43.2498 88.3713C43.2406 88.0962 43.2484 87.8036 43.2503 87.5269C44.8949 87.538 46.5396 87.531 48.1839 87.5056Z" fill="#142C40"/>
</svg>
